<mxfile host="drawio-plugin" modified="2022-07-07T11:24:22.130Z" agent="5.0 (Windows NT 6.2; Win64; x64) AppleWebKit/537.36 (KHTML, like Gecko) Chrome/89.0.4389.114 Safari/537.36" etag="uLQLlJcX_9Iqxg0DYYqe" version="15.5.4" type="embed"><diagram id="9MrKOWjtJuIy_nIF2Dhr" name="Page-1"><mxGraphModel dx="1119" dy="567" grid="1" gridSize="10" guides="1" tooltips="1" connect="1" arrows="1" fold="1" page="1" pageScale="1" pageWidth="827" pageHeight="1169" math="0" shadow="0"><root><mxCell id="0"/><mxCell id="1" parent="0"/><mxCell id="q5jDp-aHFmrQe2zDx62r-1" value="" style="shape=flexArrow;endArrow=classic;html=1;rounded=0;" parent="1" edge="1"><mxGeometry width="50" height="50" relative="1" as="geometry"><mxPoint x="20" y="290" as="sourcePoint"/><mxPoint x="400" y="290" as="targetPoint"/></mxGeometry></mxCell><mxCell id="q5jDp-aHFmrQe2zDx62r-2" value="stream(流)" style="rounded=1;whiteSpace=wrap;html=1;" parent="1" vertex="1"><mxGeometry x="270" y="200" width="110" height="50" as="geometry"/></mxCell><mxCell id="q5jDp-aHFmrQe2zDx62r-3" value="streamController(流控制器)" style="rounded=1;whiteSpace=wrap;html=1;" parent="1" vertex="1"><mxGeometry x="125" y="410" width="150" height="40" as="geometry"/></mxCell><mxCell id="q5jDp-aHFmrQe2zDx62r-4" value="" style="endArrow=classic;html=1;rounded=0;entryX=0.5;entryY=1;entryDx=0;entryDy=0;" parent="1" target="q5jDp-aHFmrQe2zDx62r-2" edge="1"><mxGeometry width="50" height="50" relative="1" as="geometry"><mxPoint x="325" y="290" as="sourcePoint"/><mxPoint x="400" y="330" as="targetPoint"/></mxGeometry></mxCell><mxCell id="q5jDp-aHFmrQe2zDx62r-5" value="" style="whiteSpace=wrap;html=1;aspect=fixed;" parent="1" vertex="1"><mxGeometry x="180" y="330" width="40" height="40" as="geometry"/></mxCell><mxCell id="q5jDp-aHFmrQe2zDx62r-6" value="" style="endArrow=none;html=1;rounded=0;exitX=0.5;exitY=0;exitDx=0;exitDy=0;" parent="1" source="q5jDp-aHFmrQe2zDx62r-5" edge="1"><mxGeometry width="50" height="50" relative="1" as="geometry"><mxPoint x="320" y="340" as="sourcePoint"/><mxPoint x="200" y="290" as="targetPoint"/></mxGeometry></mxCell><mxCell id="q5jDp-aHFmrQe2zDx62r-7" value="" style="endArrow=classic;html=1;rounded=0;entryX=0.5;entryY=0;entryDx=0;entryDy=0;exitX=0.5;exitY=1;exitDx=0;exitDy=0;" parent="1" source="q5jDp-aHFmrQe2zDx62r-5" target="q5jDp-aHFmrQe2zDx62r-3" edge="1"><mxGeometry width="50" height="50" relative="1" as="geometry"><mxPoint x="320" y="330" as="sourcePoint"/><mxPoint x="370" y="280" as="targetPoint"/></mxGeometry></mxCell><mxCell id="q5jDp-aHFmrQe2zDx62r-8" value="完成&lt;br&gt;(无法确定什么时候完成,只可以进行监听)" style="whiteSpace=wrap;html=1;aspect=fixed;" parent="1" vertex="1"><mxGeometry x="400" y="260" width="70" height="70" as="geometry"/></mxCell><mxCell id="q5jDp-aHFmrQe2zDx62r-9" value="当流有传递过来的数据时的监听.&lt;br&gt;" style="rounded=1;whiteSpace=wrap;html=1;" parent="1" vertex="1"><mxGeometry x="480" y="110" width="190" height="30" as="geometry"/></mxCell><mxCell id="q5jDp-aHFmrQe2zDx62r-10" value="" style="endArrow=classic;html=1;rounded=0;exitX=0.5;exitY=0;exitDx=0;exitDy=0;entryX=0;entryY=0.5;entryDx=0;entryDy=0;" parent="1" source="q5jDp-aHFmrQe2zDx62r-8" target="q5jDp-aHFmrQe2zDx62r-9" edge="1"><mxGeometry width="50" height="50" relative="1" as="geometry"><mxPoint x="350" y="260" as="sourcePoint"/><mxPoint x="430" y="130" as="targetPoint"/><Array as="points"><mxPoint x="435" y="125"/></Array></mxGeometry></mxCell><mxCell id="q5jDp-aHFmrQe2zDx62r-21" value="await for in" style="rounded=0;whiteSpace=wrap;html=1;" parent="1" vertex="1"><mxGeometry x="690" y="60" width="120" height="30" as="geometry"/></mxCell><mxCell id="q5jDp-aHFmrQe2zDx62r-22" value="listen" style="rounded=0;whiteSpace=wrap;html=1;" parent="1" vertex="1"><mxGeometry x="690" y="140" width="120" height="30" as="geometry"/></mxCell><mxCell id="q5jDp-aHFmrQe2zDx62r-23" value="forEeach" style="rounded=0;whiteSpace=wrap;html=1;" parent="1" vertex="1"><mxGeometry x="690" y="100" width="120" height="30" as="geometry"/></mxCell><mxCell id="q5jDp-aHFmrQe2zDx62r-24" value="" style="endArrow=none;html=1;rounded=0;" parent="1" edge="1"><mxGeometry width="50" height="50" relative="1" as="geometry"><mxPoint x="660" y="110" as="sourcePoint"/><mxPoint x="690" y="80" as="targetPoint"/></mxGeometry></mxCell><mxCell id="q5jDp-aHFmrQe2zDx62r-27" value="" style="endArrow=none;html=1;rounded=0;" parent="1" edge="1"><mxGeometry width="50" height="50" relative="1" as="geometry"><mxPoint x="670" y="120" as="sourcePoint"/><mxPoint x="690" y="120" as="targetPoint"/></mxGeometry></mxCell><mxCell id="q5jDp-aHFmrQe2zDx62r-28" value="" style="endArrow=none;html=1;rounded=0;" parent="1" edge="1"><mxGeometry width="50" height="50" relative="1" as="geometry"><mxPoint x="660" y="140" as="sourcePoint"/><mxPoint x="690" y="155" as="targetPoint"/></mxGeometry></mxCell><mxCell id="q5jDp-aHFmrQe2zDx62r-30" value="StreamSubscription&lt;br&gt;(管理事件注册)&lt;br&gt;1.暂停.&lt;br&gt;2.取消.&lt;br&gt;3. ......." style="rounded=1;whiteSpace=wrap;html=1;" parent="1" vertex="1"><mxGeometry x="520" y="200" width="130" height="80" as="geometry"/></mxCell><mxCell id="q5jDp-aHFmrQe2zDx62r-31" value="" style="endArrow=classic;html=1;rounded=0;" parent="1" edge="1"><mxGeometry width="50" height="50" relative="1" as="geometry"><mxPoint x="620" y="200" as="sourcePoint"/><mxPoint x="680" y="150" as="targetPoint"/></mxGeometry></mxCell><mxCell id="q5jDp-aHFmrQe2zDx62r-32" value="sink.add&lt;br&gt;事件入口" style="whiteSpace=wrap;html=1;aspect=fixed;" parent="1" vertex="1"><mxGeometry x="75" y="520" width="50" height="50" as="geometry"/></mxCell><mxCell id="q5jDp-aHFmrQe2zDx62r-33" value="" style="endArrow=classic;html=1;rounded=0;entryX=0;entryY=1;entryDx=0;entryDy=0;" parent="1" target="q5jDp-aHFmrQe2zDx62r-3" edge="1"><mxGeometry width="50" height="50" relative="1" as="geometry"><mxPoint x="100" y="520" as="sourcePoint"/><mxPoint x="150" y="470" as="targetPoint"/></mxGeometry></mxCell></root></mxGraphModel></diagram></mxfile>